<svg viewBox="0 0 32 32" xmlns="http://www.w3.org/2000/svg" role="img" aria-label="Backgammon favicon">
  <rect width="32" height="32" rx="6" fill="#DDD9D3"/>
  <rect x="2" y="2" width="28" height="28" rx="4" fill="#F3F2F0" stroke="#1F2022" stroke-width="2"/>

  <rect x="14" y="4" width="4" height="24" fill="#D3D0CB" stroke="#1F2022" stroke-width="0.6"/>
  <line x1="4" y1="16" x2="28" y2="16" stroke="#1F2022" stroke-width="0.6"/>

  <polygon points="4,4 9,4 6.5,13" fill="#4F5053"/>
  <polygon points="9,4 14,4 11.5,13" fill="#C3BFB8"/>
  <polygon points="18,4 23,4 20.5,13" fill="#C3BFB8"/>
  <polygon points="23,4 28,4 25.5,13" fill="#4F5053"/>

  <polygon points="4,28 9,28 6.5,19" fill="#C3BFB8"/>
  <polygon points="9,28 14,28 11.5,19" fill="#4F5053"/>
  <polygon points="18,28 23,28 20.5,19" fill="#4F5053"/>
  <polygon points="23,28 28,28 25.5,19" fill="#C3BFB8"/>

  <circle cx="6.5" cy="8.6" r="2" fill="#F7F7F6" stroke="#1F2022" stroke-width="0.6"/>
  <circle cx="25.5" cy="23.4" r="2" fill="#18191B" stroke="#F3F2F0" stroke-width="0.6"/>
  <circle cx="16" cy="16" r="1.2" fill="#EF3216"/>
</svg>
